<svg width="100" height="100" viewBox="0 0 100 100" fill="none" xmlns="http://www.w3.org/2000/svg">
<path d="M16.6979 41.6992C19.3846 41.8485 21.1723 44.8539 22.807 46.5444C24.6009 48.3994 26.2646 50.133 28.3427 51.6821C30.4315 53.2392 32.5035 55.0488 34.1358 57.0773C36.5559 60.0848 38.4714 63.5045 40.9705 66.4399C41.7732 67.3828 42.5267 68.4353 43.1356 69.5179C43.3421 69.885 43.5079 70.377 43.873 70.5595" stroke="black" stroke-width="5" stroke-linecap="round"/>
<path d="M42.3983 40.4352C42.3541 40.7889 41.7646 41.2548 41.5557 41.5354C40.7496 42.6179 40.1936 43.9354 39.4374 45.0697C37.5924 47.8372 36.25 50.8299 34.6508 53.7536C31.9127 58.7591 28.7535 63.5803 25.37 68.172C23.5402 70.6554 21.4003 73.3695 18.5938 74.7727" stroke="black" stroke-width="5" stroke-linecap="round"/>
<path d="M47.2435 31.3769C46.2543 31.278 45.3203 30.7673 44.3996 30.4406C43.1013 29.98 41.7432 29.7461 40.4556 29.2703C38.2388 28.4511 35.1331 28.0064 32.7899 28.0064C30.441 28.0064 27.6966 27.6225 25.3817 28.0532C23.8217 28.3434 22.3264 28.9207 20.8058 29.2586C18.5236 29.7658 16.9812 31.9217 15.0126 33.0154C14.6434 33.2205 14.4115 33.4893 14.053 33.6942C13.2513 34.1523 13.3864 33.8715 14.0764 33.4952C15.3824 32.7828 16.7684 32.3338 18.0789 31.7514C20.1187 30.8448 22.2467 29.2703 24.5976 29.2703C26.1524 29.2703 27.732 28.6383 29.3375 28.6383C30.9915 28.6383 32.6456 28.6383 34.2997 28.6383C35.7291 28.6383 37.0274 28.8754 38.4075 29.0479C38.9652 29.1177 39.5965 29.2165 40.0811 29.2703C40.7264 29.342 41.3745 29.6676 42.0238 29.6916C43.1592 29.7337 44.1561 30.2812 45.2422 30.5226C46.1671 30.7281 46.8042 31.722 47.6648 32.0089" stroke="black" stroke-width="5" stroke-linecap="round"/>
<path d="M70.6267 49.2829C69.6971 49.4201 60.3169 50.5586 60.9832 52.7003C61.5205 54.4274 65.7377 54.0973 66.987 54.1164C71.2208 54.181 75.4302 53.8083 79.369 52.1385C79.4039 52.1238 82.2991 50.8027 81.6512 50.5937C79.7185 49.9703 77.1369 50.3362 75.1559 50.3362C71.9392 50.3362 68.8745 50.4857 65.7581 51.3427C65.394 51.4429 62.7219 51.9786 63.394 52.911C64.4572 54.3857 67.9482 54.1199 69.4681 54.093C72.3501 54.042 75.2985 53.3153 77.8593 51.9747C83.0736 49.245 74.0574 49.4936 72.4758 49.4936C69.2395 49.4936 66.1184 49.7629 63.0195 50.7576C62.4509 50.9401 59.6334 51.7289 61.2172 52.7003C63.9028 54.3475 67.9464 54.4855 70.9544 54.725C75.6787 55.101 80.5956 55.0731 85.0334 53.1918C85.7417 52.8916 87.9602 52.0727 87.339 50.8746C86.7049 49.6517 85.1639 49.2426 83.9216 49.084C79.7504 48.5515 75.4308 49.0356 71.3055 49.7043C67.9528 50.2477 64.1087 50.9013 61.1236 52.6535C60.5352 52.9988 59.7693 53.7205 60.2693 54.4558C61.5252 56.3028 65.6881 56.0211 67.5136 55.9772C71.6896 55.8769 75.9756 55.4262 79.9308 54.0111C80.8964 53.6656 84.2961 52.6525 84.2961 51.1789C84.2961 48.19 71.6641 49.271 70.3224 49.3064C69.2986 49.3333 60.4656 49.1436 61.779 51.9279C62.436 53.3207 65.3774 53.6678 66.6359 53.9174C70.5266 54.6892 74.5921 54.7792 78.4913 53.9994C79.5899 53.7797 89.033 51.992 85.5367 49.7043C83.77 48.5483 81.3925 48.494 79.3573 48.452C76.332 48.3896 73.4078 48.5503 70.5096 49.4936C68.3033 50.2117 61.6057 53.2414 64.9857 56.4337C66.4454 57.8122 68.8675 58.019 70.7671 58.0838C73.9999 58.1942 77.2407 57.2839 80.3638 56.5507C81.0956 56.3789 85.4899 55.7017 85.4899 54.5026C85.4899 53.2092 80.0593 52.4414 79.2169 52.279C75.7834 51.6169 72.2093 51.7251 68.7424 52.0332C66.7796 52.2077 64.2771 52.4436 62.7152 53.8238C62.2855 54.2036 62.3421 54.7391 62.7855 55.0761C64.7094 56.5382 68.9842 55.309 71.0597 54.842C73.7562 54.2353 76.6646 53.5156 79.0765 52.1151C79.6548 51.7793 80.6389 50.9795 79.6616 50.4533C77.4264 49.2497 74.2139 49.5474 71.7736 49.5053C69.3705 49.4639 66.656 49.4149 64.5878 50.8512C64.0585 51.2188 63.6675 51.8365 63.9792 52.4896C64.6534 53.9022 67.491 53.8459 68.7307 53.7536C71.2475 53.5662 73.6315 52.5804 75.8463 51.4364C76.3076 51.1981 79.9239 49.7766 79.5914 48.9787C79.0717 47.7313 76.0449 47.7468 75.0388 47.6211C72.4467 47.2971 69.7568 47.3226 67.2093 47.9488C67.0679 47.9835 60.25 49.7008 63.0429 50.7576C64.892 51.4572 67.269 51.2185 69.1989 51.1321C71.4784 51.03 73.7947 50.8311 76.0453 50.4416C76.3316 50.392 78.3102 50.1244 77.0635 49.9617C75.3302 49.7357 73.4892 49.5773 71.7502 49.7979C70.4574 49.9619 68.5821 50.0308 67.4083 50.6522C66.9206 50.9104 67.0003 51.5033 67.4902 51.6938C68.8173 52.2099 70.6589 52.0215 72.0311 52.0215C73.6813 52.0215 75.0254 51.8454 76.5251 51.1789" stroke="black" stroke-width="5" stroke-linecap="round"/>
</svg>
